<svg width="170" height="40" viewBox="0 0 170 40" fill="none" xmlns="http://www.w3.org/2000/svg">
<path d="M19 30C23.9706 30 28 25.9706 28 21C28 16.0294 23.9706 12 19 12C14.0294 12 10 16.0294 10 21C10 25.9706 14.0294 30 19 30Z" stroke="#1A237E" stroke-width="2" stroke-linecap="round" stroke-linejoin="round"/>
<path d="M22.3501 12.6498L24.3001 10.6998C24.7517 10.2504 25.3629 9.99805 26.0001 9.99805C26.6372 9.99805 27.2485 10.2504 27.7001 10.6998L29.3001 12.2998C29.5238 12.5228 29.7014 12.7877 29.8225 13.0794C29.9436 13.3712 30.006 13.6839 30.006 13.9998C30.006 14.3157 29.9436 14.6284 29.8225 14.9202C29.7014 15.2119 29.5238 15.4768 29.3001 15.6998L27.3501 17.6498" stroke="#1A237E" stroke-width="2" stroke-linecap="round" stroke-linejoin="round"/>
<path d="M30 10L28.5 11.5" stroke="#1A237E" stroke-width="2" stroke-linecap="round" stroke-linejoin="round"/>
<path d="M51.7379 27.2131C50.6205 27.2131 49.6593 26.9763 48.8544 26.5028C48.0542 26.0246 47.4387 25.3617 47.0078 24.5142C46.5817 23.6667 46.3686 22.6913 46.3686 21.5881C46.3686 20.4706 46.584 19.4905 47.0149 18.6477C47.4505 17.8002 48.0684 17.1397 48.8686 16.6662C49.6688 16.188 50.6205 15.9489 51.7237 15.9489C52.6754 15.9489 53.5088 16.1217 54.2237 16.4673C54.9387 16.813 55.5045 17.2983 55.9212 17.9233C56.3378 18.5483 56.5675 19.2822 56.6101 20.125H53.755C53.6745 19.5805 53.4614 19.1425 53.1158 18.8111C52.7749 18.4749 52.3274 18.3068 51.7734 18.3068C51.3047 18.3068 50.8951 18.4347 50.5447 18.6903C50.1991 18.9413 49.9292 19.3082 49.7351 19.7912C49.541 20.2741 49.4439 20.8589 49.4439 21.5455C49.4439 22.2415 49.5386 22.8333 49.728 23.321C49.9221 23.8087 50.1944 24.1804 50.5447 24.4361C50.8951 24.6918 51.3047 24.8196 51.7734 24.8196C52.1191 24.8196 52.4292 24.7486 52.7038 24.6065C52.9832 24.4645 53.2128 24.2585 53.3928 23.9886C53.5774 23.714 53.6982 23.3849 53.755 23.0014H56.6101C56.5627 23.8348 56.3355 24.5687 55.9283 25.2031C55.5258 25.8329 54.9695 26.3253 54.2592 26.6804C53.549 27.0355 52.7086 27.2131 51.7379 27.2131ZM63.4762 27.2131C62.373 27.2131 61.4189 26.9787 60.614 26.5099C59.8138 26.0365 59.1959 25.3783 58.7603 24.5355C58.3247 23.688 58.1069 22.7055 58.1069 21.5881C58.1069 20.4612 58.3247 19.4763 58.7603 18.6335C59.1959 17.786 59.8138 17.1278 60.614 16.6591C61.4189 16.1856 62.373 15.9489 63.4762 15.9489C64.5794 15.9489 65.5311 16.1856 66.3313 16.6591C67.1362 17.1278 67.7565 17.786 68.1921 18.6335C68.6277 19.4763 68.8455 20.4612 68.8455 21.5881C68.8455 22.7055 68.6277 23.688 68.1921 24.5355C67.7565 25.3783 67.1362 26.0365 66.3313 26.5099C65.5311 26.9787 64.5794 27.2131 63.4762 27.2131ZM63.4904 24.8693C63.9923 24.8693 64.4113 24.7273 64.7475 24.4432C65.0837 24.1544 65.337 23.7614 65.5075 23.2642C65.6826 22.767 65.7702 22.2012 65.7702 21.5668C65.7702 20.9323 65.6826 20.3665 65.5075 19.8693C65.337 19.3722 65.0837 18.9792 64.7475 18.6903C64.4113 18.4015 63.9923 18.2571 63.4904 18.2571C62.9838 18.2571 62.5576 18.4015 62.212 18.6903C61.8711 18.9792 61.613 19.3722 61.4379 19.8693C61.2674 20.3665 61.1822 20.9323 61.1822 21.5668C61.1822 22.2012 61.2674 22.767 61.4379 23.2642C61.613 23.7614 61.8711 24.1544 62.212 24.4432C62.5576 24.7273 62.9838 24.8693 63.4904 24.8693ZM74.8327 27.1776C74.0041 27.1776 73.2537 26.9645 72.5813 26.5384C71.9137 26.1075 71.3834 25.4754 70.9904 24.642C70.6022 23.804 70.408 22.7765 70.408 21.5597C70.408 20.3097 70.6093 19.2704 71.0117 18.4418C71.4142 17.6084 71.9492 16.9858 72.6168 16.5739C73.2892 16.1572 74.0254 15.9489 74.8256 15.9489C75.4364 15.9489 75.9454 16.053 76.3526 16.2614C76.7646 16.465 77.096 16.7206 77.3469 17.0284C77.6026 17.3314 77.7968 17.6297 77.9293 17.9233H78.0217V12.4545H81.0401V27H78.0572V25.2528H77.9293C77.7873 25.5559 77.5861 25.8565 77.3256 26.1548C77.07 26.4484 76.7362 26.6922 76.3242 26.8864C75.917 27.0805 75.4199 27.1776 74.8327 27.1776ZM75.7915 24.7699C76.2792 24.7699 76.6912 24.6373 77.0273 24.3722C77.3683 24.1023 77.6287 23.7259 77.8086 23.2429C77.9933 22.7599 78.0856 22.1941 78.0856 21.5455C78.0856 20.8968 77.9956 20.3333 77.8157 19.8551C77.6358 19.3769 77.3754 19.0076 77.0344 18.7472C76.6935 18.4867 76.2792 18.3565 75.7915 18.3565C75.2944 18.3565 74.8754 18.4915 74.5344 18.7614C74.1935 19.0312 73.9355 19.4053 73.7603 19.8835C73.5851 20.3617 73.4975 20.9157 73.4975 21.5455C73.4975 22.1799 73.5851 22.741 73.7603 23.2287C73.9402 23.7116 74.1983 24.0904 74.5344 24.3651C74.8754 24.6349 75.2944 24.7699 75.7915 24.7699ZM88.4993 27.2131C87.3771 27.2131 86.4112 26.9858 85.6016 26.5312C84.7966 26.072 84.1764 25.4233 83.7408 24.5852C83.3052 23.7424 83.0874 22.7457 83.0874 21.5952C83.0874 20.473 83.3052 19.4882 83.7408 18.6406C84.1764 17.7931 84.7895 17.1326 85.5803 16.6591C86.3757 16.1856 87.3085 15.9489 88.3786 15.9489C89.0982 15.9489 89.7682 16.0649 90.3885 16.2969C91.0135 16.5241 91.558 16.8674 92.022 17.3267C92.4908 17.786 92.8554 18.3636 93.1158 19.0597C93.3762 19.7509 93.5064 20.5606 93.5064 21.4886V22.3196H84.2947V20.4446H90.6584C90.6584 20.009 90.5637 19.6231 90.3743 19.2869C90.1849 18.9508 89.9221 18.688 89.5859 18.4986C89.2545 18.3045 88.8686 18.2074 88.4283 18.2074C87.969 18.2074 87.5618 18.3139 87.2067 18.527C86.8563 18.7353 86.5817 19.017 86.3828 19.3722C86.1839 19.7225 86.0821 20.1132 86.0774 20.544V22.3267C86.0774 22.8665 86.1768 23.3329 86.3757 23.7259C86.5793 24.1188 86.8658 24.4219 87.2351 24.6349C87.6044 24.848 88.0424 24.9545 88.549 24.9545C88.8852 24.9545 89.1929 24.9072 89.4723 24.8125C89.7517 24.7178 89.9908 24.5758 90.1896 24.3864C90.3885 24.197 90.54 23.965 90.6442 23.6903L93.4425 23.875C93.3004 24.5473 93.0092 25.1345 92.5689 25.6364C92.1333 26.1335 91.5698 26.5218 90.8786 26.8011C90.192 27.0758 89.3989 27.2131 88.4993 27.2131ZM95.5376 27V12.4545H98.5632V17.9233H98.6555C98.7881 17.6297 98.9799 17.3314 99.2308 17.0284C99.4865 16.7206 99.8179 16.465 100.225 16.2614C100.637 16.053 101.148 15.9489 101.759 15.9489C102.555 15.9489 103.289 16.1572 103.961 16.5739C104.633 16.9858 105.171 17.6084 105.573 18.4418C105.976 19.2704 106.177 20.3097 106.177 21.5597C106.177 22.7765 105.98 23.804 105.587 24.642C105.199 25.4754 104.669 26.1075 103.996 26.5384C103.329 26.9645 102.581 27.1776 101.752 27.1776C101.165 27.1776 100.665 27.0805 100.254 26.8864C99.8464 26.6922 99.5125 26.4484 99.2521 26.1548C98.9917 25.8565 98.7929 25.5559 98.6555 25.2528H98.5206V27H95.5376ZM98.4993 21.5455C98.4993 22.1941 98.5893 22.7599 98.7692 23.2429C98.9491 23.7259 99.2095 24.1023 99.5504 24.3722C99.8913 24.6373 100.306 24.7699 100.793 24.7699C101.286 24.7699 101.702 24.6349 102.043 24.3651C102.384 24.0904 102.642 23.7116 102.817 23.2287C102.997 22.741 103.087 22.1799 103.087 21.5455C103.087 20.9157 103 20.3617 102.825 19.8835C102.649 19.4053 102.391 19.0312 102.05 18.7614C101.71 18.4915 101.29 18.3565 100.793 18.3565C100.301 18.3565 99.8842 18.4867 99.5433 18.7472C99.2071 19.0076 98.9491 19.3769 98.7692 19.8551C98.5893 20.3333 98.4993 20.8968 98.4993 21.5455ZM113.125 27.2131C112.021 27.2131 111.067 26.9787 110.262 26.5099C109.462 26.0365 108.844 25.3783 108.409 24.5355C107.973 23.688 107.755 22.7055 107.755 21.5881C107.755 20.4612 107.973 19.4763 108.409 18.6335C108.844 17.786 109.462 17.1278 110.262 16.6591C111.067 16.1856 112.021 15.9489 113.125 15.9489C114.228 15.9489 115.18 16.1856 115.98 16.6591C116.785 17.1278 117.405 17.786 117.841 18.6335C118.276 19.4763 118.494 20.4612 118.494 21.5881C118.494 22.7055 118.276 23.688 117.841 24.5355C117.405 25.3783 116.785 26.0365 115.98 26.5099C115.18 26.9787 114.228 27.2131 113.125 27.2131ZM113.139 24.8693C113.641 24.8693 114.06 24.7273 114.396 24.4432C114.732 24.1544 114.985 23.7614 115.156 23.2642C115.331 22.767 115.419 22.2012 115.419 21.5668C115.419 20.9323 115.331 20.3665 115.156 19.8693C114.985 19.3722 114.732 18.9792 114.396 18.6903C114.06 18.4015 113.641 18.2571 113.139 18.2571C112.632 18.2571 112.206 18.4015 111.86 18.6903C111.52 18.9792 111.261 19.3722 111.086 19.8693C110.916 20.3665 110.831 20.9323 110.831 21.5668C110.831 22.2012 110.916 22.767 111.086 23.2642C111.261 23.7614 111.52 24.1544 111.86 24.4432C112.206 24.7273 112.632 24.8693 113.139 24.8693ZM120.461 27V16.0909H123.345V18.0156H123.473C123.7 17.3764 124.079 16.8722 124.609 16.5028C125.139 16.1335 125.774 15.9489 126.512 15.9489C127.261 15.9489 127.897 16.1359 128.423 16.5099C128.949 16.8793 129.299 17.3812 129.474 18.0156H129.588C129.81 17.3906 130.213 16.8911 130.795 16.517C131.382 16.1383 132.076 15.9489 132.876 15.9489C133.894 15.9489 134.72 16.2732 135.355 16.9219C135.994 17.5658 136.314 18.4796 136.314 19.6634V27H133.295V20.2599C133.295 19.6539 133.134 19.1993 132.812 18.8963C132.49 18.5933 132.088 18.4418 131.605 18.4418C131.056 18.4418 130.627 18.617 130.319 18.9673C130.011 19.313 129.858 19.7699 129.858 20.3381V27H126.924V20.196C126.924 19.661 126.77 19.2348 126.463 18.9176C126.16 18.6004 125.76 18.4418 125.262 18.4418C124.926 18.4418 124.623 18.527 124.353 18.6974C124.088 18.8632 123.877 19.0975 123.721 19.4006C123.565 19.6989 123.487 20.0492 123.487 20.4517V27H120.461ZM138.76 27V12.4545H141.786V17.9233H141.878C142.011 17.6297 142.203 17.3314 142.453 17.0284C142.709 16.7206 143.041 16.465 143.448 16.2614C143.86 16.053 144.371 15.9489 144.982 15.9489C145.777 15.9489 146.511 16.1572 147.184 16.5739C147.856 16.9858 148.393 17.6084 148.796 18.4418C149.198 19.2704 149.4 20.3097 149.4 21.5597C149.4 22.7765 149.203 23.804 148.81 24.642C148.422 25.4754 147.891 26.1075 147.219 26.5384C146.551 26.9645 145.803 27.1776 144.975 27.1776C144.388 27.1776 143.888 27.0805 143.476 26.8864C143.069 26.6922 142.735 26.4484 142.475 26.1548C142.214 25.8565 142.016 25.5559 141.878 25.2528H141.743V27H138.76ZM141.722 21.5455C141.722 22.1941 141.812 22.7599 141.992 23.2429C142.172 23.7259 142.432 24.1023 142.773 24.3722C143.114 24.6373 143.528 24.7699 144.016 24.7699C144.508 24.7699 144.925 24.6349 145.266 24.3651C145.607 24.0904 145.865 23.7116 146.04 23.2287C146.22 22.741 146.31 22.1799 146.31 21.5455C146.31 20.9157 146.222 20.3617 146.047 19.8835C145.872 19.4053 145.614 19.0312 145.273 18.7614C144.932 18.4915 144.513 18.3565 144.016 18.3565C143.524 18.3565 143.107 18.4867 142.766 18.7472C142.43 19.0076 142.172 19.3769 141.992 19.8551C141.812 20.3333 141.722 20.8968 141.722 21.5455ZM154.529 27.206C153.833 27.206 153.213 27.0852 152.668 26.8438C152.124 26.5975 151.693 26.2353 151.376 25.7571C151.063 25.2741 150.907 24.6728 150.907 23.9531C150.907 23.3471 151.018 22.8381 151.241 22.4261C151.463 22.0142 151.766 21.6828 152.15 21.4318C152.533 21.1809 152.969 20.9915 153.457 20.8636C153.949 20.7358 154.465 20.6458 155.005 20.5938C155.639 20.5275 156.151 20.4659 156.539 20.4091C156.927 20.3475 157.209 20.2576 157.384 20.1392C157.559 20.0208 157.647 19.8456 157.647 19.6136V19.571C157.647 19.1212 157.505 18.7732 157.221 18.527C156.942 18.2808 156.544 18.1577 156.028 18.1577C155.483 18.1577 155.05 18.2784 154.728 18.5199C154.406 18.7566 154.193 19.0549 154.089 19.4148L151.29 19.1875C151.433 18.5246 151.712 17.9517 152.129 17.4688C152.545 16.9811 153.083 16.607 153.741 16.3466C154.404 16.0814 155.171 15.9489 156.042 15.9489C156.648 15.9489 157.228 16.0199 157.782 16.1619C158.341 16.304 158.835 16.5241 159.266 16.8224C159.702 17.1207 160.045 17.5043 160.296 17.973C160.547 18.437 160.673 18.9934 160.673 19.642V27H157.803V25.4872H157.718C157.543 25.8281 157.308 26.1288 157.015 26.3892C156.721 26.6449 156.369 26.8461 155.957 26.9929C155.545 27.1349 155.069 27.206 154.529 27.206ZM155.396 25.1179C155.841 25.1179 156.234 25.0303 156.575 24.8551C156.915 24.6752 157.183 24.4337 157.377 24.1307C157.571 23.8277 157.668 23.4844 157.668 23.1009V21.9432C157.574 22.0047 157.443 22.0616 157.278 22.1136C157.117 22.161 156.934 22.206 156.731 22.2486C156.527 22.2865 156.324 22.322 156.12 22.3551C155.916 22.3835 155.732 22.4096 155.566 22.4332C155.211 22.4853 154.901 22.5682 154.636 22.6818C154.371 22.7955 154.165 22.9493 154.018 23.1435C153.871 23.3329 153.798 23.5696 153.798 23.8537C153.798 24.2656 153.947 24.5805 154.245 24.7983C154.548 25.0114 154.932 25.1179 155.396 25.1179Z" fill="#1A237E"/>
</svg>
