<svg width="36" height="36" viewBox="0 0 36 36" fill="none" xmlns="http://www.w3.org/2000/svg">
<path d="M18 10.5H12.1667C11.7246 10.5 11.3007 10.6756 10.9882 10.9882C10.6756 11.3007 10.5 11.7246 10.5 12.1667V23.8333C10.5 24.2754 10.6756 24.6993 10.9882 25.0118C11.3007 25.3244 11.7246 25.5 12.1667 25.5H23.8333C24.2754 25.5 24.6993 25.3244 25.0118 25.0118C25.3244 24.6993 25.5 24.2754 25.5 23.8333V18" stroke="#1A237E" stroke-width="1.66667" stroke-linecap="round" stroke-linejoin="round"/>
<path d="M23.3125 10.1874C23.644 9.85592 24.0937 9.66968 24.5625 9.66968C25.0313 9.66968 25.481 9.85592 25.8125 10.1874C26.144 10.519 26.3303 10.9686 26.3303 11.4374C26.3303 11.9063 26.144 12.3559 25.8125 12.6874L18.3017 20.1991C18.1038 20.3968 17.8593 20.5415 17.5908 20.6199L15.1967 21.3199C15.125 21.3409 15.0489 21.3421 14.9766 21.3236C14.9042 21.305 14.8382 21.2674 14.7854 21.2146C14.7326 21.1618 14.6949 21.0957 14.6764 21.0234C14.6578 20.951 14.6591 20.875 14.68 20.8033L15.38 18.4091C15.4588 18.1408 15.6038 17.8967 15.8017 17.6991L23.3125 10.1874Z" stroke="#1A237E" stroke-width="1.66667" stroke-linecap="round" stroke-linejoin="round"/>
</svg>
