<svg width="64" height="64" viewBox="0 0 64 64" fill="none" xmlns="http://www.w3.org/2000/svg">
<path d="M57.9465 48L36.6131 10.6666C36.148 9.84583 35.4734 9.16312 34.6583 8.68813C33.8431 8.21315 32.9166 7.96289 31.9731 7.96289C31.0297 7.96289 30.1032 8.21315 29.288 8.68813C28.4729 9.16312 27.7983 9.84583 27.3331 10.6666L5.99981 48C5.52963 48.8142 5.28309 49.7384 5.28517 50.6786C5.28725 51.6189 5.53789 52.5419 6.01167 53.3541C6.48545 54.1663 7.16554 54.8388 7.983 55.3035C8.80046 55.7681 9.72623 56.0084 10.6665 56H53.3331C54.2689 55.999 55.1879 55.7519 55.9979 55.2834C56.8079 54.8149 57.4804 54.1415 57.9478 53.3309C58.4153 52.5203 58.6613 51.601 58.661 50.6652C58.6608 49.7295 58.4143 48.8103 57.9465 48Z" stroke="#FB2C36" stroke-width="5.33333" stroke-linecap="round" stroke-linejoin="round"/>
<path d="M32 24V34.6667" stroke="#FB2C36" stroke-width="5.33333" stroke-linecap="round" stroke-linejoin="round"/>
<path d="M32 45.334H32.0267" stroke="#FB2C36" stroke-width="5.33333" stroke-linecap="round" stroke-linejoin="round"/>
</svg>
