<svg width="96" height="96" viewBox="0 0 96 96" fill="none" xmlns="http://www.w3.org/2000/svg">
<path d="M48 1C73.9574 1 95 22.0426 95 48C95 73.9574 73.9574 95 48 95C22.0426 95 1 73.9574 1 48C1 22.0426 22.0426 1 48 1Z" fill="#EBEDEF"/>
<path d="M48 1C73.9574 1 95 22.0426 95 48C95 73.9574 73.9574 95 48 95C22.0426 95 1 73.9574 1 48C1 22.0426 22.0426 1 48 1Z" stroke="#1A237E" stroke-width="2"/>
<rect x="21" y="24.5" width="54" height="9" rx="4.5" fill="#1A237E"/>
<rect x="21" y="43.5" width="54" height="9" rx="4.5" fill="#1A237E"/>
<rect x="21" y="62.5" width="54" height="9" rx="4.5" fill="#1A237E"/>
</svg>
