<svg width="24" height="24" viewBox="0 0 24 24" fill="none" xmlns="http://www.w3.org/2000/svg">
<path d="M11 22C15.9706 22 20 17.9706 20 13C20 8.02944 15.9706 4 11 4C6.02944 4 2 8.02944 2 13C2 17.9706 6.02944 22 11 22Z" stroke="white" stroke-width="2" stroke-linecap="round" stroke-linejoin="round"/>
<path d="M14.3501 4.65005L16.3001 2.70005C16.7517 2.2506 17.3629 1.99829 18.0001 1.99829C18.6372 1.99829 19.2485 2.2506 19.7001 2.70005L21.3001 4.30005C21.5238 4.52301 21.7014 4.78796 21.8225 5.07968C21.9436 5.37141 22.006 5.68417 22.006 6.00005C22.006 6.31592 21.9436 6.62869 21.8225 6.92041C21.7014 7.21214 21.5238 7.47708 21.3001 7.70005L19.3501 9.65005" stroke="white" stroke-width="2" stroke-linecap="round" stroke-linejoin="round"/>
<path d="M22 2L20.5 3.5" stroke="white" stroke-width="2" stroke-linecap="round" stroke-linejoin="round"/>
</svg>
